<mxfile host="app.diagrams.net" modified="2023-06-07T09:02:43.464Z" agent="Mozilla/5.0 (Windows NT 10.0; Win64; x64; rv:109.0) Gecko/20100101 Firefox/113.0" etag="cTJkKk7iyGSrDHwoYP3t" version="21.3.7" type="device">
  <diagram id="C5RBs43oDa-KdzZeNtuy" name="Page-1">
    <mxGraphModel dx="1420" dy="768" grid="1" gridSize="10" guides="1" tooltips="1" connect="1" arrows="1" fold="1" page="1" pageScale="1" pageWidth="827" pageHeight="1169" math="0" shadow="0">
      <root>
        <mxCell id="WIyWlLk6GJQsqaUBKTNV-0" />
        <mxCell id="WIyWlLk6GJQsqaUBKTNV-1" parent="WIyWlLk6GJQsqaUBKTNV-0" />
        <mxCell id="JXwwoViRtcVZiZZvlt5a-12" value="" style="edgeStyle=orthogonalEdgeStyle;rounded=0;orthogonalLoop=1;jettySize=auto;html=1;entryX=1;entryY=0.5;entryDx=0;entryDy=0;exitX=0.5;exitY=0;exitDx=0;exitDy=0;endArrow=block;endFill=0;" parent="WIyWlLk6GJQsqaUBKTNV-1" source="gi9G4t17sfUzlG6W1bum-43" target="gi9G4t17sfUzlG6W1bum-0" edge="1">
          <mxGeometry relative="1" as="geometry">
            <mxPoint x="570" y="830" as="sourcePoint" />
            <mxPoint x="570" y="750" as="targetPoint" />
          </mxGeometry>
        </mxCell>
        <mxCell id="JXwwoViRtcVZiZZvlt5a-25" value="" style="edgeStyle=orthogonalEdgeStyle;rounded=0;orthogonalLoop=1;jettySize=auto;html=1;entryX=1;entryY=0.5;entryDx=0;entryDy=0;exitX=0.5;exitY=0;exitDx=0;exitDy=0;endArrow=block;endFill=0;" parent="WIyWlLk6GJQsqaUBKTNV-1" source="JXwwoViRtcVZiZZvlt5a-19" target="gi9G4t17sfUzlG6W1bum-0" edge="1">
          <mxGeometry relative="1" as="geometry">
            <mxPoint x="650" y="640" as="targetPoint" />
            <mxPoint x="740" y="1060" as="sourcePoint" />
          </mxGeometry>
        </mxCell>
        <mxCell id="JXwwoViRtcVZiZZvlt5a-27" value="" style="edgeStyle=orthogonalEdgeStyle;rounded=0;orthogonalLoop=1;jettySize=auto;html=1;entryX=1;entryY=0.5;entryDx=0;entryDy=0;exitX=0.5;exitY=0;exitDx=0;exitDy=0;endArrow=block;endFill=0;" parent="WIyWlLk6GJQsqaUBKTNV-1" source="JXwwoViRtcVZiZZvlt5a-13" target="gi9G4t17sfUzlG6W1bum-0" edge="1">
          <mxGeometry relative="1" as="geometry">
            <mxPoint x="570" y="750" as="targetPoint" />
            <Array as="points">
              <mxPoint x="360" y="810" />
              <mxPoint x="570" y="810" />
              <mxPoint x="570" y="339" />
            </Array>
            <mxPoint x="334" y="1060" as="sourcePoint" />
          </mxGeometry>
        </mxCell>
        <mxCell id="zkfFHV4jXpPFQw0GAbJ--17" value="Palya" style="swimlane;fontStyle=0;align=center;verticalAlign=top;childLayout=stackLayout;horizontal=1;startSize=26;horizontalStack=0;resizeParent=1;resizeLast=0;collapsible=1;marginBottom=0;rounded=0;shadow=0;strokeWidth=1;" parent="WIyWlLk6GJQsqaUBKTNV-1" vertex="1">
          <mxGeometry x="265" y="537" width="160" height="234" as="geometry">
            <mxRectangle x="550" y="140" width="160" height="26" as="alternateBounds" />
          </mxGeometry>
        </mxCell>
        <mxCell id="zkfFHV4jXpPFQw0GAbJ--18" value="-index: int" style="text;align=left;verticalAlign=top;spacingLeft=4;spacingRight=4;overflow=hidden;rotatable=0;points=[[0,0.5],[1,0.5]];portConstraint=eastwest;" parent="zkfFHV4jXpPFQw0GAbJ--17" vertex="1">
          <mxGeometry y="26" width="160" height="26" as="geometry" />
        </mxCell>
        <mxCell id="zkfFHV4jXpPFQw0GAbJ--19" value="-szuloELEM: htmlElem" style="text;align=left;verticalAlign=top;spacingLeft=4;spacingRight=4;overflow=hidden;rotatable=0;points=[[0,0.5],[1,0.5]];portConstraint=eastwest;rounded=0;shadow=0;html=0;" parent="zkfFHV4jXpPFQw0GAbJ--17" vertex="1">
          <mxGeometry y="52" width="160" height="26" as="geometry" />
        </mxCell>
        <mxCell id="JXwwoViRtcVZiZZvlt5a-9" value="-id:int" style="text;align=left;verticalAlign=top;spacingLeft=4;spacingRight=4;overflow=hidden;rotatable=0;points=[[0,0.5],[1,0.5]];portConstraint=eastwest;rounded=0;shadow=0;html=0;" parent="zkfFHV4jXpPFQw0GAbJ--17" vertex="1">
          <mxGeometry y="78" width="160" height="26" as="geometry" />
        </mxCell>
        <mxCell id="GW8UpHgcK0URMMhtyovN-3" value="+allapot" style="text;whiteSpace=wrap;html=1;" parent="zkfFHV4jXpPFQw0GAbJ--17" vertex="1">
          <mxGeometry y="104" width="160" height="40" as="geometry" />
        </mxCell>
        <mxCell id="JXwwoViRtcVZiZZvlt5a-10" value="-divELEM: htmlElem" style="text;align=left;verticalAlign=top;spacingLeft=4;spacingRight=4;overflow=hidden;rotatable=0;points=[[0,0.5],[1,0.5]];portConstraint=eastwest;rounded=0;shadow=0;html=0;" parent="zkfFHV4jXpPFQw0GAbJ--17" vertex="1">
          <mxGeometry y="144" width="160" height="30" as="geometry" />
        </mxCell>
        <mxCell id="zkfFHV4jXpPFQw0GAbJ--23" value="" style="line;html=1;strokeWidth=1;align=left;verticalAlign=middle;spacingTop=-1;spacingLeft=3;spacingRight=3;rotatable=0;labelPosition=right;points=[];portConstraint=eastwest;" parent="zkfFHV4jXpPFQw0GAbJ--17" vertex="1">
          <mxGeometry y="174" width="160" height="8" as="geometry" />
        </mxCell>
        <mxCell id="bgRpwazlIUfu7sDKqLQM-18" value="-applyBackground()" style="text;align=left;verticalAlign=top;spacingLeft=4;spacingRight=4;overflow=hidden;rotatable=0;points=[[0,0.5],[1,0.5]];portConstraint=eastwest;fontStyle=4" parent="zkfFHV4jXpPFQw0GAbJ--17" vertex="1">
          <mxGeometry y="182" width="160" height="26" as="geometry" />
        </mxCell>
        <mxCell id="0Q_S1kaC_RVCmk0lzY0S-0" value="-esemenyTrigger()" style="text;align=left;verticalAlign=top;spacingLeft=4;spacingRight=4;overflow=hidden;rotatable=0;points=[[0,0.5],[1,0.5]];portConstraint=eastwest;fontStyle=4" vertex="1" parent="zkfFHV4jXpPFQw0GAbJ--17">
          <mxGeometry y="208" width="160" height="26" as="geometry" />
        </mxCell>
        <mxCell id="JXwwoViRtcVZiZZvlt5a-13" value="Futo" style="swimlane;fontStyle=0;align=center;verticalAlign=top;childLayout=stackLayout;horizontal=1;startSize=26;horizontalStack=0;resizeParent=1;resizeLast=0;collapsible=1;marginBottom=0;rounded=0;shadow=0;strokeWidth=1;" parent="WIyWlLk6GJQsqaUBKTNV-1" vertex="1">
          <mxGeometry x="280" y="950" width="160" height="242" as="geometry">
            <mxRectangle x="130" y="380" width="160" height="26" as="alternateBounds" />
          </mxGeometry>
        </mxCell>
        <mxCell id="JXwwoViRtcVZiZZvlt5a-16" value="" style="line;html=1;strokeWidth=1;align=left;verticalAlign=middle;spacingTop=-1;spacingLeft=3;spacingRight=3;rotatable=0;labelPosition=right;points=[];portConstraint=eastwest;" parent="JXwwoViRtcVZiZZvlt5a-13" vertex="1">
          <mxGeometry y="26" width="160" height="8" as="geometry" />
        </mxCell>
        <mxCell id="GW8UpHgcK0URMMhtyovN-5" value="-lepesek_tomb(index)" style="text;align=left;verticalAlign=top;spacingLeft=4;spacingRight=4;overflow=hidden;rotatable=0;points=[[0,0.5],[1,0.5]];portConstraint=eastwest;fontStyle=4" parent="JXwwoViRtcVZiZZvlt5a-13" vertex="1">
          <mxGeometry y="34" width="160" height="26" as="geometry" />
        </mxCell>
        <mxCell id="JXwwoViRtcVZiZZvlt5a-17" value="+lepesekjf()" style="text;align=left;verticalAlign=top;spacingLeft=4;spacingRight=4;overflow=hidden;rotatable=0;points=[[0,0.5],[1,0.5]];portConstraint=eastwest;fontStyle=4" parent="JXwwoViRtcVZiZZvlt5a-13" vertex="1">
          <mxGeometry y="60" width="160" height="26" as="geometry" />
        </mxCell>
        <mxCell id="bgRpwazlIUfu7sDKqLQM-6" value="+lepesekbf()" style="text;align=left;verticalAlign=top;spacingLeft=4;spacingRight=4;overflow=hidden;rotatable=0;points=[[0,0.5],[1,0.5]];portConstraint=eastwest;fontStyle=4" parent="JXwwoViRtcVZiZZvlt5a-13" vertex="1">
          <mxGeometry y="86" width="160" height="26" as="geometry" />
        </mxCell>
        <mxCell id="bgRpwazlIUfu7sDKqLQM-9" value="+lepesekbl()" style="text;align=left;verticalAlign=top;spacingLeft=4;spacingRight=4;overflow=hidden;rotatable=0;points=[[0,0.5],[1,0.5]];portConstraint=eastwest;fontStyle=4" parent="JXwwoViRtcVZiZZvlt5a-13" vertex="1">
          <mxGeometry y="112" width="160" height="26" as="geometry" />
        </mxCell>
        <mxCell id="bgRpwazlIUfu7sDKqLQM-8" value="+lepeseklj()" style="text;align=left;verticalAlign=top;spacingLeft=4;spacingRight=4;overflow=hidden;rotatable=0;points=[[0,0.5],[1,0.5]];portConstraint=eastwest;fontStyle=4" parent="JXwwoViRtcVZiZZvlt5a-13" vertex="1">
          <mxGeometry y="138" width="160" height="26" as="geometry" />
        </mxCell>
        <mxCell id="sNWcJOVrm-3sjoaXct3L-1" value="+hatarr()" style="text;align=left;verticalAlign=top;spacingLeft=4;spacingRight=4;overflow=hidden;rotatable=0;points=[[0,0.5],[1,0.5]];portConstraint=eastwest;fontStyle=4" parent="JXwwoViRtcVZiZZvlt5a-13" vertex="1">
          <mxGeometry y="164" width="160" height="26" as="geometry" />
        </mxCell>
        <mxCell id="JXwwoViRtcVZiZZvlt5a-19" value="BÃ¡sttya" style="swimlane;fontStyle=0;align=center;verticalAlign=top;childLayout=stackLayout;horizontal=1;startSize=26;horizontalStack=0;resizeParent=1;resizeLast=0;collapsible=1;marginBottom=0;rounded=0;shadow=0;strokeWidth=1;" parent="WIyWlLk6GJQsqaUBKTNV-1" vertex="1">
          <mxGeometry x="667" y="830" width="160" height="230" as="geometry">
            <mxRectangle x="130" y="380" width="160" height="26" as="alternateBounds" />
          </mxGeometry>
        </mxCell>
        <mxCell id="JXwwoViRtcVZiZZvlt5a-22" value="" style="line;html=1;strokeWidth=1;align=left;verticalAlign=middle;spacingTop=-1;spacingLeft=3;spacingRight=3;rotatable=0;labelPosition=right;points=[];portConstraint=eastwest;" parent="JXwwoViRtcVZiZZvlt5a-19" vertex="1">
          <mxGeometry y="26" width="160" height="8" as="geometry" />
        </mxCell>
        <mxCell id="GW8UpHgcK0URMMhtyovN-4" value="-lepesek_tomb(index)" style="text;align=left;verticalAlign=top;spacingLeft=4;spacingRight=4;overflow=hidden;rotatable=0;points=[[0,0.5],[1,0.5]];portConstraint=eastwest;fontStyle=4" parent="JXwwoViRtcVZiZZvlt5a-19" vertex="1">
          <mxGeometry y="34" width="160" height="26" as="geometry" />
        </mxCell>
        <mxCell id="bgRpwazlIUfu7sDKqLQM-0" value="+lepesekb()" style="text;align=left;verticalAlign=top;spacingLeft=4;spacingRight=4;overflow=hidden;rotatable=0;points=[[0,0.5],[1,0.5]];portConstraint=eastwest;fontStyle=4" parent="JXwwoViRtcVZiZZvlt5a-19" vertex="1">
          <mxGeometry y="60" width="160" height="26" as="geometry" />
        </mxCell>
        <mxCell id="bgRpwazlIUfu7sDKqLQM-5" value="+lepesekf()" style="text;align=left;verticalAlign=top;spacingLeft=4;spacingRight=4;overflow=hidden;rotatable=0;points=[[0,0.5],[1,0.5]];portConstraint=eastwest;fontStyle=4" parent="JXwwoViRtcVZiZZvlt5a-19" vertex="1">
          <mxGeometry y="86" width="160" height="26" as="geometry" />
        </mxCell>
        <mxCell id="bgRpwazlIUfu7sDKqLQM-2" value="+lepesekj()" style="text;align=left;verticalAlign=top;spacingLeft=4;spacingRight=4;overflow=hidden;rotatable=0;points=[[0,0.5],[1,0.5]];portConstraint=eastwest;fontStyle=4" parent="JXwwoViRtcVZiZZvlt5a-19" vertex="1">
          <mxGeometry y="112" width="160" height="26" as="geometry" />
        </mxCell>
        <mxCell id="bgRpwazlIUfu7sDKqLQM-1" value="+lepesekl()" style="text;align=left;verticalAlign=top;spacingLeft=4;spacingRight=4;overflow=hidden;rotatable=0;points=[[0,0.5],[1,0.5]];portConstraint=eastwest;fontStyle=4" parent="JXwwoViRtcVZiZZvlt5a-19" vertex="1">
          <mxGeometry y="138" width="160" height="26" as="geometry" />
        </mxCell>
        <mxCell id="NFFEKYyRXM-yOz8qU7Ke-44" value="+lepesi_lehetosegek" style="text;align=left;verticalAlign=top;spacingLeft=4;spacingRight=4;overflow=hidden;rotatable=0;points=[[0,0.5],[1,0.5]];portConstraint=eastwest;fontStyle=4" parent="JXwwoViRtcVZiZZvlt5a-19" vertex="1">
          <mxGeometry y="164" width="160" height="26" as="geometry" />
        </mxCell>
        <mxCell id="bgRpwazlIUfu7sDKqLQM-4" value="+hatar()" style="text;align=left;verticalAlign=top;spacingLeft=4;spacingRight=4;overflow=hidden;rotatable=0;points=[[0,0.5],[1,0.5]];portConstraint=eastwest;fontStyle=4" parent="JXwwoViRtcVZiZZvlt5a-19" vertex="1">
          <mxGeometry y="190" width="160" height="26" as="geometry" />
        </mxCell>
        <mxCell id="NFFEKYyRXM-yOz8qU7Ke-1" value="InfoPanel" style="swimlane;fontStyle=2;align=center;verticalAlign=top;childLayout=stackLayout;horizontal=1;startSize=26;horizontalStack=0;resizeParent=1;resizeLast=0;collapsible=1;marginBottom=0;rounded=0;shadow=0;strokeWidth=1;" parent="WIyWlLk6GJQsqaUBKTNV-1" vertex="1">
          <mxGeometry x="40" y="537" width="160" height="190" as="geometry">
            <mxRectangle x="230" y="140" width="160" height="26" as="alternateBounds" />
          </mxGeometry>
        </mxCell>
        <mxCell id="NFFEKYyRXM-yOz8qU7Ke-2" value="+lepeselem" style="text;align=left;verticalAlign=top;spacingLeft=4;spacingRight=4;overflow=hidden;rotatable=0;points=[[0,0.5],[1,0.5]];portConstraint=eastwest;" parent="NFFEKYyRXM-yOz8qU7Ke-1" vertex="1">
          <mxGeometry y="26" width="160" height="26" as="geometry" />
        </mxCell>
        <mxCell id="GW8UpHgcK0URMMhtyovN-0" value="-szuloElem" style="text;align=left;verticalAlign=top;spacingLeft=4;spacingRight=4;overflow=hidden;rotatable=0;points=[[0,0.5],[1,0.5]];portConstraint=eastwest;" parent="NFFEKYyRXM-yOz8qU7Ke-1" vertex="1">
          <mxGeometry y="52" width="160" height="26" as="geometry" />
        </mxCell>
        <mxCell id="NFFEKYyRXM-yOz8qU7Ke-7" value="" style="line;html=1;strokeWidth=1;align=left;verticalAlign=middle;spacingTop=-1;spacingLeft=3;spacingRight=3;rotatable=0;labelPosition=right;points=[];portConstraint=eastwest;" parent="NFFEKYyRXM-yOz8qU7Ke-1" vertex="1">
          <mxGeometry y="78" width="160" height="8" as="geometry" />
        </mxCell>
        <mxCell id="GW8UpHgcK0URMMhtyovN-1" value="-updateLepes(lepes)" style="text;align=left;verticalAlign=top;spacingLeft=4;spacingRight=4;overflow=hidden;rotatable=0;points=[[0,0.5],[1,0.5]];portConstraint=eastwest;" parent="NFFEKYyRXM-yOz8qU7Ke-1" vertex="1">
          <mxGeometry y="86" width="160" height="26" as="geometry" />
        </mxCell>
        <mxCell id="NFFEKYyRXM-yOz8qU7Ke-18" value="BÃ¡buk_adat_lista" style="swimlane;fontStyle=0;align=center;verticalAlign=top;childLayout=stackLayout;horizontal=1;startSize=26;horizontalStack=0;resizeParent=1;resizeLast=0;collapsible=1;marginBottom=0;rounded=0;shadow=0;strokeWidth=1;" parent="WIyWlLk6GJQsqaUBKTNV-1" vertex="1">
          <mxGeometry x="20" y="760" width="160" height="110" as="geometry">
            <mxRectangle x="130" y="380" width="160" height="26" as="alternateBounds" />
          </mxGeometry>
        </mxCell>
        <mxCell id="NFFEKYyRXM-yOz8qU7Ke-19" value="SzÃ­n" style="text;align=left;verticalAlign=top;spacingLeft=4;spacingRight=4;overflow=hidden;rotatable=0;points=[[0,0.5],[1,0.5]];portConstraint=eastwest;rounded=0;shadow=0;html=0;" parent="NFFEKYyRXM-yOz8qU7Ke-18" vertex="1">
          <mxGeometry y="26" width="160" height="26" as="geometry" />
        </mxCell>
        <mxCell id="NFFEKYyRXM-yOz8qU7Ke-20" value="Nev" style="text;align=left;verticalAlign=top;spacingLeft=4;spacingRight=4;overflow=hidden;rotatable=0;points=[[0,0.5],[1,0.5]];portConstraint=eastwest;rounded=0;shadow=0;html=0;" parent="NFFEKYyRXM-yOz8qU7Ke-18" vertex="1">
          <mxGeometry y="52" width="160" height="26" as="geometry" />
        </mxCell>
        <mxCell id="NFFEKYyRXM-yOz8qU7Ke-26" value="Jatekter" style="swimlane;fontStyle=2;align=center;verticalAlign=top;childLayout=stackLayout;horizontal=1;startSize=26;horizontalStack=0;resizeParent=1;resizeLast=0;collapsible=1;marginBottom=0;rounded=0;shadow=0;strokeWidth=1;" parent="WIyWlLk6GJQsqaUBKTNV-1" vertex="1">
          <mxGeometry x="230" y="240" width="230" height="250" as="geometry">
            <mxRectangle x="230" y="140" width="160" height="26" as="alternateBounds" />
          </mxGeometry>
        </mxCell>
        <mxCell id="NFFEKYyRXM-yOz8qU7Ke-56" value="Lista" style="text;align=left;verticalAlign=top;spacingLeft=4;spacingRight=4;overflow=hidden;rotatable=0;points=[[0,0.5],[1,0.5]];portConstraint=eastwest;" parent="NFFEKYyRXM-yOz8qU7Ke-26" vertex="1">
          <mxGeometry y="26" width="230" height="26" as="geometry" />
        </mxCell>
        <mxCell id="GW8UpHgcK0URMMhtyovN-2" value="+lepes" style="text;align=left;verticalAlign=top;spacingLeft=4;spacingRight=4;overflow=hidden;rotatable=0;points=[[0,0.5],[1,0.5]];portConstraint=eastwest;" parent="NFFEKYyRXM-yOz8qU7Ke-26" vertex="1">
          <mxGeometry y="52" width="230" height="26" as="geometry" />
        </mxCell>
        <mxCell id="NFFEKYyRXM-yOz8qU7Ke-32" value="" style="line;html=1;strokeWidth=1;align=left;verticalAlign=middle;spacingTop=-1;spacingLeft=3;spacingRight=3;rotatable=0;labelPosition=right;points=[];portConstraint=eastwest;" parent="NFFEKYyRXM-yOz8qU7Ke-26" vertex="1">
          <mxGeometry y="78" width="230" height="8" as="geometry" />
        </mxCell>
        <mxCell id="gi9G4t17sfUzlG6W1bum-0" value="-vissza_szinezes()" style="text;align=left;verticalAlign=top;spacingLeft=4;spacingRight=4;overflow=hidden;rotatable=0;points=[[0,0.5],[1,0.5]];portConstraint=eastwest;fontStyle=4" parent="NFFEKYyRXM-yOz8qU7Ke-26" vertex="1">
          <mxGeometry y="86" width="230" height="26" as="geometry" />
        </mxCell>
        <mxCell id="gi9G4t17sfUzlG6W1bum-4" value="mozgatas(eredeti_hely,tomb,babu,hely)" style="text;align=left;verticalAlign=top;spacingLeft=4;spacingRight=4;overflow=hidden;rotatable=0;points=[[0,0.5],[1,0.5]];portConstraint=eastwest;fontStyle=4" parent="NFFEKYyRXM-yOz8qU7Ke-26" vertex="1">
          <mxGeometry y="112" width="230" height="26" as="geometry" />
        </mxCell>
        <mxCell id="gi9G4t17sfUzlG6W1bum-3" value="-szinezes(tomb)" style="text;align=left;verticalAlign=top;spacingLeft=4;spacingRight=4;overflow=hidden;rotatable=0;points=[[0,0.5],[1,0.5]];portConstraint=eastwest;fontStyle=4" parent="NFFEKYyRXM-yOz8qU7Ke-26" vertex="1">
          <mxGeometry y="138" width="230" height="26" as="geometry" />
        </mxCell>
        <mxCell id="gi9G4t17sfUzlG6W1bum-2" value="-lephet_feher" style="text;align=left;verticalAlign=top;spacingLeft=4;spacingRight=4;overflow=hidden;rotatable=0;points=[[0,0.5],[1,0.5]];portConstraint=eastwest;fontStyle=4" parent="NFFEKYyRXM-yOz8qU7Ke-26" vertex="1">
          <mxGeometry y="164" width="230" height="26" as="geometry" />
        </mxCell>
        <mxCell id="gi9G4t17sfUzlG6W1bum-1" value="-lephet_fekete" style="text;align=left;verticalAlign=top;spacingLeft=4;spacingRight=4;overflow=hidden;rotatable=0;points=[[0,0.5],[1,0.5]];portConstraint=eastwest;fontStyle=4" parent="NFFEKYyRXM-yOz8qU7Ke-26" vertex="1">
          <mxGeometry y="190" width="230" height="26" as="geometry" />
        </mxCell>
        <mxCell id="0Q_S1kaC_RVCmk0lzY0S-1" value="elemKivalasztas()" style="text;align=left;verticalAlign=top;spacingLeft=4;spacingRight=4;overflow=hidden;rotatable=0;points=[[0,0.5],[1,0.5]];portConstraint=eastwest;fontStyle=4" vertex="1" parent="NFFEKYyRXM-yOz8qU7Ke-26">
          <mxGeometry y="216" width="230" height="26" as="geometry" />
        </mxCell>
        <mxCell id="NFFEKYyRXM-yOz8qU7Ke-37" value="" style="endArrow=block;html=1;rounded=0;exitX=0.5;exitY=0;exitDx=0;exitDy=0;entryX=0;entryY=0.5;entryDx=0;entryDy=0;endFill=0;" parent="WIyWlLk6GJQsqaUBKTNV-1" source="NFFEKYyRXM-yOz8qU7Ke-1" target="gi9G4t17sfUzlG6W1bum-0" edge="1">
          <mxGeometry width="50" height="50" relative="1" as="geometry">
            <mxPoint x="10" y="600" as="sourcePoint" />
            <mxPoint x="230" y="350" as="targetPoint" />
            <Array as="points">
              <mxPoint x="120" y="339" />
            </Array>
          </mxGeometry>
        </mxCell>
        <mxCell id="NFFEKYyRXM-yOz8qU7Ke-38" value="" style="endArrow=block;html=1;rounded=0;entryX=0.5;entryY=1;entryDx=0;entryDy=0;endFill=0;verticalAlign=middle;exitX=0.5;exitY=0;exitDx=0;exitDy=0;horizontal=1;" parent="WIyWlLk6GJQsqaUBKTNV-1" source="zkfFHV4jXpPFQw0GAbJ--17" target="NFFEKYyRXM-yOz8qU7Ke-26" edge="1">
          <mxGeometry width="50" height="50" relative="1" as="geometry">
            <mxPoint x="440" y="410" as="sourcePoint" />
            <mxPoint x="320" y="440" as="targetPoint" />
          </mxGeometry>
        </mxCell>
        <mxCell id="NFFEKYyRXM-yOz8qU7Ke-45" value="Main" style="rounded=0;whiteSpace=wrap;html=1;" parent="WIyWlLk6GJQsqaUBKTNV-1" vertex="1">
          <mxGeometry x="260" y="30" width="170" height="60" as="geometry" />
        </mxCell>
        <mxCell id="sNWcJOVrm-3sjoaXct3L-0" value="" style="endArrow=block;html=1;rounded=0;exitX=0.5;exitY=0;exitDx=0;exitDy=0;entryX=0.5;entryY=1;entryDx=0;entryDy=0;endFill=0;" parent="WIyWlLk6GJQsqaUBKTNV-1" source="NFFEKYyRXM-yOz8qU7Ke-26" target="NFFEKYyRXM-yOz8qU7Ke-45" edge="1">
          <mxGeometry width="50" height="50" relative="1" as="geometry">
            <mxPoint x="440" y="400" as="sourcePoint" />
            <mxPoint x="390" y="450" as="targetPoint" />
          </mxGeometry>
        </mxCell>
        <mxCell id="sNWcJOVrm-3sjoaXct3L-4" value="kirÃ¡lynÅ" style="swimlane;fontStyle=0;align=center;verticalAlign=top;childLayout=stackLayout;horizontal=1;startSize=26;horizontalStack=0;resizeParent=1;resizeLast=0;collapsible=1;marginBottom=0;rounded=0;shadow=0;strokeWidth=1;" parent="WIyWlLk6GJQsqaUBKTNV-1" vertex="1">
          <mxGeometry x="900" y="840" width="160" height="440" as="geometry">
            <mxRectangle x="130" y="380" width="160" height="26" as="alternateBounds" />
          </mxGeometry>
        </mxCell>
        <mxCell id="sNWcJOVrm-3sjoaXct3L-5" value="" style="line;html=1;strokeWidth=1;align=left;verticalAlign=middle;spacingTop=-1;spacingLeft=3;spacingRight=3;rotatable=0;labelPosition=right;points=[];portConstraint=eastwest;" parent="sNWcJOVrm-3sjoaXct3L-4" vertex="1">
          <mxGeometry y="26" width="160" height="8" as="geometry" />
        </mxCell>
        <mxCell id="gi9G4t17sfUzlG6W1bum-19" value="-lepesek_tomb(index)" style="text;align=left;verticalAlign=top;spacingLeft=4;spacingRight=4;overflow=hidden;rotatable=0;points=[[0,0.5],[1,0.5]];portConstraint=eastwest;fontStyle=4" parent="sNWcJOVrm-3sjoaXct3L-4" vertex="1">
          <mxGeometry y="34" width="160" height="26" as="geometry" />
        </mxCell>
        <mxCell id="sNWcJOVrm-3sjoaXct3L-18" value="+lepesekl()" style="text;align=left;verticalAlign=top;spacingLeft=4;spacingRight=4;overflow=hidden;rotatable=0;points=[[0,0.5],[1,0.5]];portConstraint=eastwest;fontStyle=4" parent="sNWcJOVrm-3sjoaXct3L-4" vertex="1">
          <mxGeometry y="60" width="160" height="26" as="geometry" />
        </mxCell>
        <mxCell id="sNWcJOVrm-3sjoaXct3L-17" value="+lepesekj()" style="text;align=left;verticalAlign=top;spacingLeft=4;spacingRight=4;overflow=hidden;rotatable=0;points=[[0,0.5],[1,0.5]];portConstraint=eastwest;fontStyle=4" parent="sNWcJOVrm-3sjoaXct3L-4" vertex="1">
          <mxGeometry y="86" width="160" height="26" as="geometry" />
        </mxCell>
        <mxCell id="sNWcJOVrm-3sjoaXct3L-16" value="+lepesekf()" style="text;align=left;verticalAlign=top;spacingLeft=4;spacingRight=4;overflow=hidden;rotatable=0;points=[[0,0.5],[1,0.5]];portConstraint=eastwest;fontStyle=4" parent="sNWcJOVrm-3sjoaXct3L-4" vertex="1">
          <mxGeometry y="112" width="160" height="26" as="geometry" />
        </mxCell>
        <mxCell id="sNWcJOVrm-3sjoaXct3L-15" value="+lepesekb()" style="text;align=left;verticalAlign=top;spacingLeft=4;spacingRight=4;overflow=hidden;rotatable=0;points=[[0,0.5],[1,0.5]];portConstraint=eastwest;fontStyle=4" parent="sNWcJOVrm-3sjoaXct3L-4" vertex="1">
          <mxGeometry y="138" width="160" height="26" as="geometry" />
        </mxCell>
        <mxCell id="sNWcJOVrm-3sjoaXct3L-7" value="+lepesekjf()" style="text;align=left;verticalAlign=top;spacingLeft=4;spacingRight=4;overflow=hidden;rotatable=0;points=[[0,0.5],[1,0.5]];portConstraint=eastwest;fontStyle=4" parent="sNWcJOVrm-3sjoaXct3L-4" vertex="1">
          <mxGeometry y="164" width="160" height="26" as="geometry" />
        </mxCell>
        <mxCell id="sNWcJOVrm-3sjoaXct3L-8" value="+lepesekbf()" style="text;align=left;verticalAlign=top;spacingLeft=4;spacingRight=4;overflow=hidden;rotatable=0;points=[[0,0.5],[1,0.5]];portConstraint=eastwest;fontStyle=4" parent="sNWcJOVrm-3sjoaXct3L-4" vertex="1">
          <mxGeometry y="190" width="160" height="26" as="geometry" />
        </mxCell>
        <mxCell id="sNWcJOVrm-3sjoaXct3L-9" value="+lepesekbl()" style="text;align=left;verticalAlign=top;spacingLeft=4;spacingRight=4;overflow=hidden;rotatable=0;points=[[0,0.5],[1,0.5]];portConstraint=eastwest;fontStyle=4" parent="sNWcJOVrm-3sjoaXct3L-4" vertex="1">
          <mxGeometry y="216" width="160" height="26" as="geometry" />
        </mxCell>
        <mxCell id="sNWcJOVrm-3sjoaXct3L-10" value="+lepeseklj()" style="text;align=left;verticalAlign=top;spacingLeft=4;spacingRight=4;overflow=hidden;rotatable=0;points=[[0,0.5],[1,0.5]];portConstraint=eastwest;fontStyle=4" parent="sNWcJOVrm-3sjoaXct3L-4" vertex="1">
          <mxGeometry y="242" width="160" height="26" as="geometry" />
        </mxCell>
        <mxCell id="sNWcJOVrm-3sjoaXct3L-11" value="+hatar()" style="text;align=left;verticalAlign=top;spacingLeft=4;spacingRight=4;overflow=hidden;rotatable=0;points=[[0,0.5],[1,0.5]];portConstraint=eastwest;fontStyle=4" parent="sNWcJOVrm-3sjoaXct3L-4" vertex="1">
          <mxGeometry y="268" width="160" height="26" as="geometry" />
        </mxCell>
        <mxCell id="sNWcJOVrm-3sjoaXct3L-14" value="" style="endArrow=block;html=1;rounded=0;exitX=0.5;exitY=0;exitDx=0;exitDy=0;entryX=1;entryY=0.5;entryDx=0;entryDy=0;endFill=0;" parent="WIyWlLk6GJQsqaUBKTNV-1" source="sNWcJOVrm-3sjoaXct3L-4" target="gi9G4t17sfUzlG6W1bum-0" edge="1">
          <mxGeometry width="50" height="50" relative="1" as="geometry">
            <mxPoint x="1080" y="640" as="sourcePoint" />
            <mxPoint x="650" y="640" as="targetPoint" />
            <Array as="points">
              <mxPoint x="980" y="339" />
            </Array>
          </mxGeometry>
        </mxCell>
        <mxCell id="gi9G4t17sfUzlG6W1bum-6" value="Kiraly" style="swimlane;fontStyle=0;align=center;verticalAlign=top;childLayout=stackLayout;horizontal=1;startSize=26;horizontalStack=0;resizeParent=1;resizeLast=0;collapsible=1;marginBottom=0;rounded=0;shadow=0;strokeWidth=1;" parent="WIyWlLk6GJQsqaUBKTNV-1" vertex="1">
          <mxGeometry x="1140" y="840" width="160" height="400" as="geometry">
            <mxRectangle x="130" y="380" width="160" height="26" as="alternateBounds" />
          </mxGeometry>
        </mxCell>
        <mxCell id="gi9G4t17sfUzlG6W1bum-7" value="" style="line;html=1;strokeWidth=1;align=left;verticalAlign=middle;spacingTop=-1;spacingLeft=3;spacingRight=3;rotatable=0;labelPosition=right;points=[];portConstraint=eastwest;" parent="gi9G4t17sfUzlG6W1bum-6" vertex="1">
          <mxGeometry y="26" width="160" height="8" as="geometry" />
        </mxCell>
        <mxCell id="gi9G4t17sfUzlG6W1bum-18" value="-lepesek(hely)" style="text;align=left;verticalAlign=top;spacingLeft=4;spacingRight=4;overflow=hidden;rotatable=0;points=[[0,0.5],[1,0.5]];portConstraint=eastwest;fontStyle=4" parent="gi9G4t17sfUzlG6W1bum-6" vertex="1">
          <mxGeometry y="34" width="160" height="26" as="geometry" />
        </mxCell>
        <mxCell id="gi9G4t17sfUzlG6W1bum-17" value="+lepesek1(index)" style="text;align=left;verticalAlign=top;spacingLeft=4;spacingRight=4;overflow=hidden;rotatable=0;points=[[0,0.5],[1,0.5]];portConstraint=eastwest;fontStyle=4" parent="gi9G4t17sfUzlG6W1bum-6" vertex="1">
          <mxGeometry y="60" width="160" height="26" as="geometry" />
        </mxCell>
        <mxCell id="gi9G4t17sfUzlG6W1bum-34" value="+lepesek2(index)" style="text;whiteSpace=wrap;html=1;" parent="gi9G4t17sfUzlG6W1bum-6" vertex="1">
          <mxGeometry y="86" width="160" height="34" as="geometry" />
        </mxCell>
        <mxCell id="gi9G4t17sfUzlG6W1bum-35" value="+lepesek3(index)" style="text;whiteSpace=wrap;html=1;" parent="gi9G4t17sfUzlG6W1bum-6" vertex="1">
          <mxGeometry y="120" width="160" height="24" as="geometry" />
        </mxCell>
        <mxCell id="gi9G4t17sfUzlG6W1bum-36" value="+lepesek4(index)" style="text;whiteSpace=wrap;html=1;" parent="gi9G4t17sfUzlG6W1bum-6" vertex="1">
          <mxGeometry y="144" width="160" height="24" as="geometry" />
        </mxCell>
        <mxCell id="gi9G4t17sfUzlG6W1bum-37" value="+lepesek5(index)" style="text;whiteSpace=wrap;html=1;" parent="gi9G4t17sfUzlG6W1bum-6" vertex="1">
          <mxGeometry y="168" width="160" height="24" as="geometry" />
        </mxCell>
        <mxCell id="gi9G4t17sfUzlG6W1bum-38" value="+lepesek6(index)" style="text;whiteSpace=wrap;html=1;" parent="gi9G4t17sfUzlG6W1bum-6" vertex="1">
          <mxGeometry y="192" width="160" height="40" as="geometry" />
        </mxCell>
        <mxCell id="gi9G4t17sfUzlG6W1bum-39" value="+lepesek7(index)" style="text;whiteSpace=wrap;html=1;" parent="gi9G4t17sfUzlG6W1bum-6" vertex="1">
          <mxGeometry y="232" width="160" height="24" as="geometry" />
        </mxCell>
        <mxCell id="gi9G4t17sfUzlG6W1bum-40" value="+lepesek8(index)" style="text;whiteSpace=wrap;html=1;" parent="gi9G4t17sfUzlG6W1bum-6" vertex="1">
          <mxGeometry y="256" width="160" height="24" as="geometry" />
        </mxCell>
        <mxCell id="gi9G4t17sfUzlG6W1bum-31" value="+lehet(index,szam)" style="text;align=left;verticalAlign=top;spacingLeft=4;spacingRight=4;overflow=hidden;rotatable=0;points=[[0,0.5],[1,0.5]];portConstraint=eastwest;fontStyle=4" parent="gi9G4t17sfUzlG6W1bum-6" vertex="1">
          <mxGeometry y="280" width="160" height="26" as="geometry" />
        </mxCell>
        <mxCell id="gi9G4t17sfUzlG6W1bum-32" value="+lehet1(index,szam)" style="text;align=left;verticalAlign=top;spacingLeft=4;spacingRight=4;overflow=hidden;rotatable=0;points=[[0,0.5],[1,0.5]];portConstraint=eastwest;fontStyle=4" parent="gi9G4t17sfUzlG6W1bum-6" vertex="1">
          <mxGeometry y="306" width="160" height="26" as="geometry" />
        </mxCell>
        <mxCell id="gi9G4t17sfUzlG6W1bum-33" value="+lehet2(index,szam)" style="text;align=left;verticalAlign=top;spacingLeft=4;spacingRight=4;overflow=hidden;rotatable=0;points=[[0,0.5],[1,0.5]];portConstraint=eastwest;fontStyle=4" parent="gi9G4t17sfUzlG6W1bum-6" vertex="1">
          <mxGeometry y="332" width="160" height="26" as="geometry" />
        </mxCell>
        <mxCell id="gi9G4t17sfUzlG6W1bum-42" value="+hatar()" style="text;align=left;verticalAlign=top;spacingLeft=4;spacingRight=4;overflow=hidden;rotatable=0;points=[[0,0.5],[1,0.5]];portConstraint=eastwest;fontStyle=4" parent="gi9G4t17sfUzlG6W1bum-6" vertex="1">
          <mxGeometry y="358" width="160" height="26" as="geometry" />
        </mxCell>
        <mxCell id="gi9G4t17sfUzlG6W1bum-10" style="edgeStyle=orthogonalEdgeStyle;rounded=0;orthogonalLoop=1;jettySize=auto;html=1;entryX=1;entryY=0.5;entryDx=0;entryDy=0;exitX=0.5;exitY=0;exitDx=0;exitDy=0;endArrow=block;endFill=0;" parent="WIyWlLk6GJQsqaUBKTNV-1" source="gi9G4t17sfUzlG6W1bum-6" target="gi9G4t17sfUzlG6W1bum-0" edge="1">
          <mxGeometry relative="1" as="geometry">
            <mxPoint x="650" y="603" as="targetPoint" />
          </mxGeometry>
        </mxCell>
        <mxCell id="gi9G4t17sfUzlG6W1bum-43" value="Paraszt" style="swimlane;fontStyle=0;align=center;verticalAlign=top;childLayout=stackLayout;horizontal=1;startSize=26;horizontalStack=0;resizeParent=1;resizeLast=0;collapsible=1;marginBottom=0;rounded=0;shadow=0;strokeWidth=1;" parent="WIyWlLk6GJQsqaUBKTNV-1" vertex="1">
          <mxGeometry x="490" y="830" width="160" height="400" as="geometry">
            <mxRectangle x="130" y="380" width="160" height="26" as="alternateBounds" />
          </mxGeometry>
        </mxCell>
        <mxCell id="gi9G4t17sfUzlG6W1bum-44" value="" style="line;html=1;strokeWidth=1;align=left;verticalAlign=middle;spacingTop=-1;spacingLeft=3;spacingRight=3;rotatable=0;labelPosition=right;points=[];portConstraint=eastwest;" parent="gi9G4t17sfUzlG6W1bum-43" vertex="1">
          <mxGeometry y="26" width="160" height="8" as="geometry" />
        </mxCell>
        <mxCell id="gi9G4t17sfUzlG6W1bum-45" value="-lepes(index)" style="text;align=left;verticalAlign=top;spacingLeft=4;spacingRight=4;overflow=hidden;rotatable=0;points=[[0,0.5],[1,0.5]];portConstraint=eastwest;fontStyle=4" parent="gi9G4t17sfUzlG6W1bum-43" vertex="1">
          <mxGeometry y="34" width="160" height="26" as="geometry" />
        </mxCell>
        <mxCell id="gi9G4t17sfUzlG6W1bum-46" value="+lepesek1(index)" style="text;align=left;verticalAlign=top;spacingLeft=4;spacingRight=4;overflow=hidden;rotatable=0;points=[[0,0.5],[1,0.5]];portConstraint=eastwest;fontStyle=4" parent="gi9G4t17sfUzlG6W1bum-43" vertex="1">
          <mxGeometry y="60" width="160" height="26" as="geometry" />
        </mxCell>
        <mxCell id="gi9G4t17sfUzlG6W1bum-47" value="+lepesek2(index)" style="text;whiteSpace=wrap;html=1;" parent="gi9G4t17sfUzlG6W1bum-43" vertex="1">
          <mxGeometry y="86" width="160" height="34" as="geometry" />
        </mxCell>
        <mxCell id="gi9G4t17sfUzlG6W1bum-48" value="+lepesek3(index)" style="text;whiteSpace=wrap;html=1;" parent="gi9G4t17sfUzlG6W1bum-43" vertex="1">
          <mxGeometry y="120" width="160" height="24" as="geometry" />
        </mxCell>
        <mxCell id="gi9G4t17sfUzlG6W1bum-49" value="+lepesek4(index)" style="text;whiteSpace=wrap;html=1;" parent="gi9G4t17sfUzlG6W1bum-43" vertex="1">
          <mxGeometry y="144" width="160" height="24" as="geometry" />
        </mxCell>
        <mxCell id="gi9G4t17sfUzlG6W1bum-50" value="+lepesek5(index)" style="text;whiteSpace=wrap;html=1;" parent="gi9G4t17sfUzlG6W1bum-43" vertex="1">
          <mxGeometry y="168" width="160" height="24" as="geometry" />
        </mxCell>
        <mxCell id="gi9G4t17sfUzlG6W1bum-51" value="+lepesek6(index)" style="text;whiteSpace=wrap;html=1;" parent="gi9G4t17sfUzlG6W1bum-43" vertex="1">
          <mxGeometry y="192" width="160" height="40" as="geometry" />
        </mxCell>
        <mxCell id="gi9G4t17sfUzlG6W1bum-52" value="+lepesek7(index)" style="text;whiteSpace=wrap;html=1;" parent="gi9G4t17sfUzlG6W1bum-43" vertex="1">
          <mxGeometry y="232" width="160" height="24" as="geometry" />
        </mxCell>
        <mxCell id="gi9G4t17sfUzlG6W1bum-53" value="+lepesek8(index)" style="text;whiteSpace=wrap;html=1;" parent="gi9G4t17sfUzlG6W1bum-43" vertex="1">
          <mxGeometry y="256" width="160" height="24" as="geometry" />
        </mxCell>
        <mxCell id="gi9G4t17sfUzlG6W1bum-57" value="+hatar()" style="text;align=left;verticalAlign=top;spacingLeft=4;spacingRight=4;overflow=hidden;rotatable=0;points=[[0,0.5],[1,0.5]];portConstraint=eastwest;fontStyle=4" parent="gi9G4t17sfUzlG6W1bum-43" vertex="1">
          <mxGeometry y="280" width="160" height="26" as="geometry" />
        </mxCell>
        <mxCell id="gi9G4t17sfUzlG6W1bum-58" value="Lo" style="swimlane;fontStyle=0;align=center;verticalAlign=top;childLayout=stackLayout;horizontal=1;startSize=26;horizontalStack=0;resizeParent=1;resizeLast=0;collapsible=1;marginBottom=0;rounded=0;shadow=0;strokeWidth=1;" parent="WIyWlLk6GJQsqaUBKTNV-1" vertex="1">
          <mxGeometry x="1370" y="840" width="160" height="410" as="geometry">
            <mxRectangle x="130" y="380" width="160" height="26" as="alternateBounds" />
          </mxGeometry>
        </mxCell>
        <mxCell id="gi9G4t17sfUzlG6W1bum-59" value="" style="line;html=1;strokeWidth=1;align=left;verticalAlign=middle;spacingTop=-1;spacingLeft=3;spacingRight=3;rotatable=0;labelPosition=right;points=[];portConstraint=eastwest;" parent="gi9G4t17sfUzlG6W1bum-58" vertex="1">
          <mxGeometry y="26" width="160" height="8" as="geometry" />
        </mxCell>
        <mxCell id="gi9G4t17sfUzlG6W1bum-60" value="-lepes(index)" style="text;align=left;verticalAlign=top;spacingLeft=4;spacingRight=4;overflow=hidden;rotatable=0;points=[[0,0.5],[1,0.5]];portConstraint=eastwest;fontStyle=4" parent="gi9G4t17sfUzlG6W1bum-58" vertex="1">
          <mxGeometry y="34" width="160" height="26" as="geometry" />
        </mxCell>
        <mxCell id="gi9G4t17sfUzlG6W1bum-61" value="+lepesek1(index)" style="text;align=left;verticalAlign=top;spacingLeft=4;spacingRight=4;overflow=hidden;rotatable=0;points=[[0,0.5],[1,0.5]];portConstraint=eastwest;fontStyle=4" parent="gi9G4t17sfUzlG6W1bum-58" vertex="1">
          <mxGeometry y="60" width="160" height="26" as="geometry" />
        </mxCell>
        <mxCell id="gi9G4t17sfUzlG6W1bum-62" value="+lepesek2(index)" style="text;whiteSpace=wrap;html=1;" parent="gi9G4t17sfUzlG6W1bum-58" vertex="1">
          <mxGeometry y="86" width="160" height="34" as="geometry" />
        </mxCell>
        <mxCell id="gi9G4t17sfUzlG6W1bum-63" value="+lepesek3(index)" style="text;whiteSpace=wrap;html=1;" parent="gi9G4t17sfUzlG6W1bum-58" vertex="1">
          <mxGeometry y="120" width="160" height="24" as="geometry" />
        </mxCell>
        <mxCell id="gi9G4t17sfUzlG6W1bum-64" value="+lepesek4(index)" style="text;whiteSpace=wrap;html=1;" parent="gi9G4t17sfUzlG6W1bum-58" vertex="1">
          <mxGeometry y="144" width="160" height="24" as="geometry" />
        </mxCell>
        <mxCell id="gi9G4t17sfUzlG6W1bum-65" value="+lepesek5(index)" style="text;whiteSpace=wrap;html=1;" parent="gi9G4t17sfUzlG6W1bum-58" vertex="1">
          <mxGeometry y="168" width="160" height="24" as="geometry" />
        </mxCell>
        <mxCell id="gi9G4t17sfUzlG6W1bum-66" value="+lepesek6(index)" style="text;whiteSpace=wrap;html=1;" parent="gi9G4t17sfUzlG6W1bum-58" vertex="1">
          <mxGeometry y="192" width="160" height="40" as="geometry" />
        </mxCell>
        <mxCell id="gi9G4t17sfUzlG6W1bum-67" value="+lepesek7(index)" style="text;whiteSpace=wrap;html=1;" parent="gi9G4t17sfUzlG6W1bum-58" vertex="1">
          <mxGeometry y="232" width="160" height="24" as="geometry" />
        </mxCell>
        <mxCell id="gi9G4t17sfUzlG6W1bum-68" value="+lepesek8(index)" style="text;whiteSpace=wrap;html=1;" parent="gi9G4t17sfUzlG6W1bum-58" vertex="1">
          <mxGeometry y="256" width="160" height="24" as="geometry" />
        </mxCell>
        <mxCell id="gi9G4t17sfUzlG6W1bum-71" value="+lehet(index,szam)" style="text;align=left;verticalAlign=top;spacingLeft=4;spacingRight=4;overflow=hidden;rotatable=0;points=[[0,0.5],[1,0.5]];portConstraint=eastwest;fontStyle=4" parent="gi9G4t17sfUzlG6W1bum-58" vertex="1">
          <mxGeometry y="280" width="160" height="26" as="geometry" />
        </mxCell>
        <mxCell id="gi9G4t17sfUzlG6W1bum-72" value="+lehet1(index,szam)" style="text;align=left;verticalAlign=top;spacingLeft=4;spacingRight=4;overflow=hidden;rotatable=0;points=[[0,0.5],[1,0.5]];portConstraint=eastwest;fontStyle=4" parent="gi9G4t17sfUzlG6W1bum-58" vertex="1">
          <mxGeometry y="306" width="160" height="26" as="geometry" />
        </mxCell>
        <mxCell id="gi9G4t17sfUzlG6W1bum-73" value="+lehet2(index,szam)" style="text;align=left;verticalAlign=top;spacingLeft=4;spacingRight=4;overflow=hidden;rotatable=0;points=[[0,0.5],[1,0.5]];portConstraint=eastwest;fontStyle=4" parent="gi9G4t17sfUzlG6W1bum-58" vertex="1">
          <mxGeometry y="332" width="160" height="26" as="geometry" />
        </mxCell>
        <mxCell id="gi9G4t17sfUzlG6W1bum-74" value="+lehet3(index,szam)" style="text;align=left;verticalAlign=top;spacingLeft=4;spacingRight=4;overflow=hidden;rotatable=0;points=[[0,0.5],[1,0.5]];portConstraint=eastwest;fontStyle=4" parent="gi9G4t17sfUzlG6W1bum-58" vertex="1">
          <mxGeometry y="358" width="160" height="26" as="geometry" />
        </mxCell>
        <mxCell id="gi9G4t17sfUzlG6W1bum-69" value="+hatar()" style="text;align=left;verticalAlign=top;spacingLeft=4;spacingRight=4;overflow=hidden;rotatable=0;points=[[0,0.5],[1,0.5]];portConstraint=eastwest;fontStyle=4" parent="gi9G4t17sfUzlG6W1bum-58" vertex="1">
          <mxGeometry y="384" width="160" height="26" as="geometry" />
        </mxCell>
        <mxCell id="gi9G4t17sfUzlG6W1bum-70" style="edgeStyle=orthogonalEdgeStyle;rounded=0;orthogonalLoop=1;jettySize=auto;html=1;entryX=1;entryY=0.5;entryDx=0;entryDy=0;exitX=0.5;exitY=0;exitDx=0;exitDy=0;endArrow=block;endFill=0;" parent="WIyWlLk6GJQsqaUBKTNV-1" source="gi9G4t17sfUzlG6W1bum-58" target="gi9G4t17sfUzlG6W1bum-0" edge="1">
          <mxGeometry relative="1" as="geometry">
            <mxPoint x="1230" y="850" as="sourcePoint" />
            <mxPoint x="650" y="603" as="targetPoint" />
          </mxGeometry>
        </mxCell>
      </root>
    </mxGraphModel>
  </diagram>
</mxfile>
